<mxfile host="app.diagrams.net" modified="2022-05-25T15:56:48.550Z" agent="5.0 (Windows)" etag="i9C2nUP8W_3usqwcqhIO" version="18.1.2" type="github">
  <diagram id="dTZOc73QGRmcEfr7qhfH" name="Page-1">
    <mxGraphModel dx="1422" dy="744" grid="1" gridSize="10" guides="1" tooltips="1" connect="1" arrows="1" fold="1" page="1" pageScale="1" pageWidth="827" pageHeight="1169" math="0" shadow="0">
      <root>
        <mxCell id="0" />
        <mxCell id="1" parent="0" />
        <mxCell id="dwxAxvNwJghYSs9Gkolr-3" value="" style="edgeStyle=orthogonalEdgeStyle;rounded=0;orthogonalLoop=1;jettySize=auto;html=1;" edge="1" parent="1" source="dwxAxvNwJghYSs9Gkolr-1" target="dwxAxvNwJghYSs9Gkolr-2">
          <mxGeometry relative="1" as="geometry" />
        </mxCell>
        <mxCell id="dwxAxvNwJghYSs9Gkolr-1" value="Início" style="ellipse;whiteSpace=wrap;html=1;aspect=fixed;" vertex="1" parent="1">
          <mxGeometry x="50" y="100" width="80" height="80" as="geometry" />
        </mxCell>
        <mxCell id="dwxAxvNwJghYSs9Gkolr-40" value="" style="edgeStyle=orthogonalEdgeStyle;rounded=0;orthogonalLoop=1;jettySize=auto;html=1;" edge="1" parent="1" source="dwxAxvNwJghYSs9Gkolr-2" target="dwxAxvNwJghYSs9Gkolr-39">
          <mxGeometry relative="1" as="geometry" />
        </mxCell>
        <mxCell id="dwxAxvNwJghYSs9Gkolr-2" value="&lt;div&gt;Usuário acessa a tela&lt;/div&gt;&lt;div&gt;Programas de Entrega&lt;br&gt;&lt;/div&gt;" style="whiteSpace=wrap;html=1;" vertex="1" parent="1">
          <mxGeometry x="190" y="110" width="140" height="60" as="geometry" />
        </mxCell>
        <mxCell id="dwxAxvNwJghYSs9Gkolr-4" value="COR24_HISTORICO" style="shape=table;startSize=30;container=1;collapsible=1;childLayout=tableLayout;fixedRows=1;rowLines=0;fontStyle=1;align=center;resizeLast=1;fillColor=#f5f5f5;sketch=0;rounded=0;shadow=0;swimlaneFillColor=#FFFFFF;fontColor=#333333;strokeColor=#666666;" vertex="1" parent="1">
          <mxGeometry x="260" y="410" width="240" height="210" as="geometry" />
        </mxCell>
        <mxCell id="dwxAxvNwJghYSs9Gkolr-5" value="" style="shape=tableRow;horizontal=0;startSize=0;swimlaneHead=0;swimlaneBody=0;fillColor=none;collapsible=0;dropTarget=0;points=[[0,0.5],[1,0.5]];portConstraint=eastwest;top=0;left=0;right=0;bottom=1;" vertex="1" parent="dwxAxvNwJghYSs9Gkolr-4">
          <mxGeometry y="30" width="240" height="30" as="geometry" />
        </mxCell>
        <mxCell id="dwxAxvNwJghYSs9Gkolr-6" value="PK" style="shape=partialRectangle;connectable=0;fillColor=none;top=0;left=0;bottom=0;right=0;fontStyle=1;overflow=hidden;" vertex="1" parent="dwxAxvNwJghYSs9Gkolr-5">
          <mxGeometry width="30" height="30" as="geometry">
            <mxRectangle width="30" height="30" as="alternateBounds" />
          </mxGeometry>
        </mxCell>
        <mxCell id="dwxAxvNwJghYSs9Gkolr-7" value="COR24_ID: NUMBER" style="shape=partialRectangle;connectable=0;fillColor=none;top=0;left=0;bottom=0;right=0;align=left;spacingLeft=6;fontStyle=5;overflow=hidden;" vertex="1" parent="dwxAxvNwJghYSs9Gkolr-5">
          <mxGeometry x="30" width="210" height="30" as="geometry">
            <mxRectangle width="210" height="30" as="alternateBounds" />
          </mxGeometry>
        </mxCell>
        <mxCell id="dwxAxvNwJghYSs9Gkolr-11" value="" style="shape=tableRow;horizontal=0;startSize=0;swimlaneHead=0;swimlaneBody=0;fillColor=none;collapsible=0;dropTarget=0;points=[[0,0.5],[1,0.5]];portConstraint=eastwest;top=0;left=0;right=0;bottom=0;" vertex="1" parent="dwxAxvNwJghYSs9Gkolr-4">
          <mxGeometry y="60" width="240" height="30" as="geometry" />
        </mxCell>
        <mxCell id="dwxAxvNwJghYSs9Gkolr-12" value="PK" style="shape=partialRectangle;connectable=0;fillColor=none;top=0;left=0;bottom=0;right=0;editable=1;overflow=hidden;" vertex="1" parent="dwxAxvNwJghYSs9Gkolr-11">
          <mxGeometry width="30" height="30" as="geometry">
            <mxRectangle width="30" height="30" as="alternateBounds" />
          </mxGeometry>
        </mxCell>
        <mxCell id="dwxAxvNwJghYSs9Gkolr-13" value="COR24_PK_TABELA: VARCHAR" style="shape=partialRectangle;connectable=0;fillColor=none;top=0;left=0;bottom=0;right=0;align=left;spacingLeft=6;overflow=hidden;" vertex="1" parent="dwxAxvNwJghYSs9Gkolr-11">
          <mxGeometry x="30" width="210" height="30" as="geometry">
            <mxRectangle width="210" height="30" as="alternateBounds" />
          </mxGeometry>
        </mxCell>
        <mxCell id="dwxAxvNwJghYSs9Gkolr-8" value="" style="shape=tableRow;horizontal=0;startSize=0;swimlaneHead=0;swimlaneBody=0;fillColor=none;collapsible=0;dropTarget=0;points=[[0,0.5],[1,0.5]];portConstraint=eastwest;top=0;left=0;right=0;bottom=0;" vertex="1" parent="dwxAxvNwJghYSs9Gkolr-4">
          <mxGeometry y="90" width="240" height="30" as="geometry" />
        </mxCell>
        <mxCell id="dwxAxvNwJghYSs9Gkolr-9" value="" style="shape=partialRectangle;connectable=0;fillColor=none;top=0;left=0;bottom=0;right=0;editable=1;overflow=hidden;" vertex="1" parent="dwxAxvNwJghYSs9Gkolr-8">
          <mxGeometry width="30" height="30" as="geometry">
            <mxRectangle width="30" height="30" as="alternateBounds" />
          </mxGeometry>
        </mxCell>
        <mxCell id="dwxAxvNwJghYSs9Gkolr-10" value="COR24_DT_INCLUSAO: DATE" style="shape=partialRectangle;connectable=0;fillColor=none;top=0;left=0;bottom=0;right=0;align=left;spacingLeft=6;overflow=hidden;" vertex="1" parent="dwxAxvNwJghYSs9Gkolr-8">
          <mxGeometry x="30" width="210" height="30" as="geometry">
            <mxRectangle width="210" height="30" as="alternateBounds" />
          </mxGeometry>
        </mxCell>
        <mxCell id="dwxAxvNwJghYSs9Gkolr-14" value="" style="shape=tableRow;horizontal=0;startSize=0;swimlaneHead=0;swimlaneBody=0;fillColor=none;collapsible=0;dropTarget=0;points=[[0,0.5],[1,0.5]];portConstraint=eastwest;top=0;left=0;right=0;bottom=0;" vertex="1" parent="dwxAxvNwJghYSs9Gkolr-4">
          <mxGeometry y="120" width="240" height="30" as="geometry" />
        </mxCell>
        <mxCell id="dwxAxvNwJghYSs9Gkolr-15" value="" style="shape=partialRectangle;connectable=0;fillColor=none;top=0;left=0;bottom=0;right=0;editable=1;overflow=hidden;" vertex="1" parent="dwxAxvNwJghYSs9Gkolr-14">
          <mxGeometry width="30" height="30" as="geometry">
            <mxRectangle width="30" height="30" as="alternateBounds" />
          </mxGeometry>
        </mxCell>
        <mxCell id="dwxAxvNwJghYSs9Gkolr-16" value="COR24_USU_LOGIN: VARCHAR" style="shape=partialRectangle;connectable=0;fillColor=none;top=0;left=0;bottom=0;right=0;align=left;spacingLeft=6;overflow=hidden;" vertex="1" parent="dwxAxvNwJghYSs9Gkolr-14">
          <mxGeometry x="30" width="210" height="30" as="geometry">
            <mxRectangle width="210" height="30" as="alternateBounds" />
          </mxGeometry>
        </mxCell>
        <mxCell id="dwxAxvNwJghYSs9Gkolr-17" value="" style="shape=tableRow;horizontal=0;startSize=0;swimlaneHead=0;swimlaneBody=0;fillColor=none;collapsible=0;dropTarget=0;points=[[0,0.5],[1,0.5]];portConstraint=eastwest;top=0;left=0;right=0;bottom=0;" vertex="1" parent="dwxAxvNwJghYSs9Gkolr-4">
          <mxGeometry y="150" width="240" height="30" as="geometry" />
        </mxCell>
        <mxCell id="dwxAxvNwJghYSs9Gkolr-18" value="" style="shape=partialRectangle;connectable=0;fillColor=none;top=0;left=0;bottom=0;right=0;editable=1;overflow=hidden;" vertex="1" parent="dwxAxvNwJghYSs9Gkolr-17">
          <mxGeometry width="30" height="30" as="geometry">
            <mxRectangle width="30" height="30" as="alternateBounds" />
          </mxGeometry>
        </mxCell>
        <mxCell id="dwxAxvNwJghYSs9Gkolr-19" value="COR24_NM_TABELA: VARCHAR" style="shape=partialRectangle;connectable=0;fillColor=none;top=0;left=0;bottom=0;right=0;align=left;spacingLeft=6;overflow=hidden;" vertex="1" parent="dwxAxvNwJghYSs9Gkolr-17">
          <mxGeometry x="30" width="210" height="30" as="geometry">
            <mxRectangle width="210" height="30" as="alternateBounds" />
          </mxGeometry>
        </mxCell>
        <mxCell id="dwxAxvNwJghYSs9Gkolr-36" value="" style="shape=tableRow;horizontal=0;startSize=0;swimlaneHead=0;swimlaneBody=0;fillColor=none;collapsible=0;dropTarget=0;points=[[0,0.5],[1,0.5]];portConstraint=eastwest;top=0;left=0;right=0;bottom=0;" vertex="1" parent="dwxAxvNwJghYSs9Gkolr-4">
          <mxGeometry y="180" width="240" height="30" as="geometry" />
        </mxCell>
        <mxCell id="dwxAxvNwJghYSs9Gkolr-37" value="" style="shape=partialRectangle;connectable=0;fillColor=none;top=0;left=0;bottom=0;right=0;editable=1;overflow=hidden;" vertex="1" parent="dwxAxvNwJghYSs9Gkolr-36">
          <mxGeometry width="30" height="30" as="geometry">
            <mxRectangle width="30" height="30" as="alternateBounds" />
          </mxGeometry>
        </mxCell>
        <mxCell id="dwxAxvNwJghYSs9Gkolr-38" value="COMENTARIO: VARCHAR" style="shape=partialRectangle;connectable=0;fillColor=none;top=0;left=0;bottom=0;right=0;align=left;spacingLeft=6;overflow=hidden;" vertex="1" parent="dwxAxvNwJghYSs9Gkolr-36">
          <mxGeometry x="30" width="210" height="30" as="geometry">
            <mxRectangle width="210" height="30" as="alternateBounds" />
          </mxGeometry>
        </mxCell>
        <mxCell id="dwxAxvNwJghYSs9Gkolr-42" value="" style="edgeStyle=orthogonalEdgeStyle;rounded=0;orthogonalLoop=1;jettySize=auto;html=1;" edge="1" parent="1" source="dwxAxvNwJghYSs9Gkolr-39" target="dwxAxvNwJghYSs9Gkolr-41">
          <mxGeometry relative="1" as="geometry" />
        </mxCell>
        <mxCell id="dwxAxvNwJghYSs9Gkolr-39" value="&lt;div&gt;Usuário realiza &lt;br&gt;&lt;/div&gt;&lt;div&gt;filtros&lt;/div&gt;" style="shape=parallelogram;perimeter=parallelogramPerimeter;whiteSpace=wrap;html=1;fixedSize=1;" vertex="1" parent="1">
          <mxGeometry x="420" y="110" width="120" height="60" as="geometry" />
        </mxCell>
        <mxCell id="dwxAxvNwJghYSs9Gkolr-44" style="edgeStyle=orthogonalEdgeStyle;rounded=0;orthogonalLoop=1;jettySize=auto;html=1;entryX=0.5;entryY=0;entryDx=0;entryDy=0;" edge="1" parent="1" source="dwxAxvNwJghYSs9Gkolr-41" target="dwxAxvNwJghYSs9Gkolr-45">
          <mxGeometry relative="1" as="geometry">
            <mxPoint x="680" y="230" as="targetPoint" />
          </mxGeometry>
        </mxCell>
        <mxCell id="dwxAxvNwJghYSs9Gkolr-41" value="&lt;div&gt;Sistema Carrega&lt;/div&gt;&lt;div&gt;GRID&lt;/div&gt;" style="ellipse;whiteSpace=wrap;html=1;" vertex="1" parent="1">
          <mxGeometry x="620" y="110" width="120" height="60" as="geometry" />
        </mxCell>
        <mxCell id="dwxAxvNwJghYSs9Gkolr-45" value="Fim" style="ellipse;whiteSpace=wrap;html=1;aspect=fixed;" vertex="1" parent="1">
          <mxGeometry x="640" y="210" width="80" height="80" as="geometry" />
        </mxCell>
      </root>
    </mxGraphModel>
  </diagram>
</mxfile>
